# xmcd CD database file
#
# Track frame offsets:
#	180
#	37665
#	63982
#	85522
#	108450
#	119557
#	150177
#
# Disc length: 2301 seconds
#
# Revision: 0
# Processed by: cddbd v1.5.1PL0 Copyright (c) Steve Scherf et al.
# Submitted via: CDex 1.51
#
DISCID=4508fb07
DTITLE=Georges Arvanitas Trio - 3.a.m.
DYEAR=1958
DGENRE=Jazz
TTITLE0=Three a.m.
TTITLE1=A Night In Tunisia
TTITLE2=Celia
TTITLE3=Softly As In The Morning Sunshine
TTITLE4=Our Delight
TTITLE5=What's New
TTITLE6=T.W.A Blues
EXTD=YEAR: 1958
EXTT0=
EXTT1=
EXTT2=
EXTT3=
EXTT4=
EXTT5=
EXTT6=
PLAYORDER=
